<svg xmlns="http://www.w3.org/2000/svg" width="32" height="32" fill="none" stroke="#000" stroke-linecap="round" stroke-linejoin="round" viewBox="0 0 24 24"><path fill="#ffb6c1" d="M3 20h18v-8a3 3 0 0 0-3-3H6a3 3 0 0 0-3 3z"/><path fill="#ff69b4" d="M3 14.803A2.4 2.4 0 0 0 4 15a2.4 2.4 0 0 0 2-1 2.4 2.4 0 0 1 2-1 2.4 2.4 0 0 1 2 1 2.4 2.4 0 0 0 2 1 2.4 2.4 0 0 0 2-1 2.4 2.4 0 0 1 2-1 2.4 2.4 0 0 1 2 1 2.4 2.4 0 0 0 2 1c.35.007.692-.062 1-.197"/><path fill="gold" d="m12 4 1.465 1.638a2 2 0 1 1-3.015.099z"/></svg>